<svg version="1.1" xmlns="http://www.w3.org/2000/svg" viewBox="-133 -19 612 612.00141">
      <title>check-in</title>
      <path
        d="m165.699219 231.882812c-53.117188-.234374-103.410157 23.910157-136.449219 65.503907-52.929688 66.394531-48.4375 161.746093 10.5 222.867187 32.847656 34.390625 78.398438 53.738282 125.949219 53.496094 95.570312 0 173.335937-76.683594 173.335937-170.933594 0-94.257812-77.765625-170.933594-173.335937-170.933594zm0 319.40625c-41.425781.222657-81.117188-16.625-109.738281-46.578124-51.160157-53.011719-55.070313-135.738282-9.136719-193.34375 28.789062-36.222657 72.605469-57.242188 118.875-57.027344 83.191406 0 150.878906 66.605468 150.878906 148.476562 0 81.867188-67.6875 148.472656-150.878906 148.472656zm0 0">
      </path>
      <path
        d="m202.355469 435.851562-39.882813-25.175781v-82.347656c0-6.203125-5.023437-11.230469-11.226562-11.230469-6.199219 0-11.230469 5.027344-11.230469 11.230469v88.53125c0 3.855469 1.976563 7.445313 5.238281 9.496094l45.121094 28.484375c3.394531 2.160156 7.683594 2.34375 11.25.476562 3.5625-1.867187 5.859375-5.5 6.007812-9.523437.152344-4.023438-1.855468-7.816407-5.273437-9.949219zm0 0">
      </path>
      <path
        d="m70.988281 3.289062c-4.386719-4.386718-11.496093-4.386718-15.882812 0l-47.074219 47.070313c-4.378906 4.382813-4.378906 11.492187 0 15.878906l47.074219 47.074219c4.386719 4.386719 11.496093 4.386719 15.882812 0s4.386719-11.5 0-15.886719l-27.902343-27.902343h272.335937c6.199219 0 11.230469-5.023438 11.230469-11.226563 0-6.199219-5.03125-11.230469-11.230469-11.230469h-272.335937l27.902343-27.898437c4.378907-4.378907 4.378907-11.492188 0-15.878907zm0 0">
      </path>
      <path
        d="m260.414062 203.445312c4.378907 4.386719 11.492188 4.386719 15.878907 0l47.070312-47.070312c4.386719-4.386719 4.386719-11.496094 0-15.878906l-47.070312-47.074219c-4.386719-4.382813-11.5-4.382813-15.878907 0-4.386718 4.386719-4.386718 11.496094 0 15.882813l27.894532 27.902343h-272.332032c-6.203124 0-11.230468 5.023438-11.230468 11.230469 0 6.199219 5.027344 11.226562 11.230468 11.226562h272.332032l-27.894532 27.898438c-4.386718 4.386719-4.386718 11.5 0 15.882812zm0 0">
      </path>
    </svg>
