<!-- Generated by IcoMoon.io -->
<svg version="1.1" xmlns="http://www.w3.org/2000/svg" width="420" height="280" viewBox="0 0 32 32">
<title>five_minutes</title>
<path d="M14 18.17c-2.184 0-3.71 0.497-4.604 0.912l0.885-8.154h9.782v-1.047h-10.252l-0.52 0.467-1.047 9.642 0.844 0.469c0.016-0.012 1.633-1.24 4.912-1.24 1.658 0 3.155 0.611 4.214 1.722 1.095 1.148 1.63 2.701 1.545 4.492-0.169 3.587-3.363 5.521-6.283 5.521-3.17 0-5.5-1.79-5.524-1.808l-0.646 0.823c0.106 0.083 2.626 2.031 6.17 2.031 4.003 0 7.154-2.803 7.329-6.52 0.097-2.054-0.555-3.923-1.834-5.264-1.259-1.319-3.024-2.046-4.971-2.046z"></path>
<path d="M24.432 2.806c-0.25-0.145-0.571-0.059-0.715 0.192l-3.143 5.442c-0.145 0.25-0.059 0.571 0.192 0.715 0.082 0.048 0.172 0.070 0.261 0.070 0.181 0 0.357-0.094 0.454-0.262l3.143-5.442c0.145-0.25 0.059-0.571-0.192-0.715z"></path>
<path d="M13.961 7.33c0.29 0 0.524-0.234 0.524-0.524v-6.283c0-0.289-0.234-0.523-0.524-0.523s-0.524 0.234-0.524 0.523v6.283c0 0.289 0.234 0.524 0.524 0.524z"></path>
</svg>
