
<svg version="1.1" xmlns="http://www.w3.org/2000/svg" viewBox="0 -9 486.25161 486">
      <title>search</title>
      <path
        d="m474.832031 404.054688-81.632812-78.453126c-2.324219-2.230468-5.992188-2.230468-8.316407 0l-18.898437 18.164063-30.917969-29.710937c32.53125-33.367188 52.488282-78.214844 52.488282-127.464844 0-102.816406-86.929688-186.464844-193.777344-186.464844s-193.777344 83.648438-193.777344 186.464844 86.933594 186.460937 193.777344 186.460937c48.972656.167969 96.253906-17.890625 132.644531-50.664062l30.902344 29.699219-18.773438 18.039062c-1.175781 1.132812-1.839843 2.695312-1.839843 4.328125s.664062 3.195313 1.839843 4.324219l81.671875 78.488281c15.320313 14.472656 39.273438 14.460937 54.578125-.027344.503907-.476562.996094-.96875 1.472657-1.472656 13.847656-14.691406 13.203124-37.8125-1.441407-51.710937zm-281.054687-43c-100.230469 0-181.777344-78.261719-181.777344-174.460938s81.546875-174.46875 181.777344-174.46875c100.230468 0 181.777344 78.265625 181.777344 174.460938 0 96.199218-81.546876 174.464843-181.777344 174.464843zm273.773437 86.472656c-.324219.339844-.65625.671875-1.027343 1.019531-10.660157 10.085937-27.339844 10.101563-38.019532.035156l-77.136718-74.125 37.671874-36.207031 77.515626 74.5c9.859374 9.335938 10.304687 24.890625.996093 34.777344zm0 0">
      </path>
      <path
        d="m314.765625 155.125-30.257813-22.027344v-34.5625c0-3.3125-2.6875-6-6-6-3.316406 0-6 2.6875-6 6v25.828125l-75.199218-54.75c-2.105469-1.53125-4.960938-1.53125-7.066406 0l-117.457032 85.511719c-2.097656 1.53125-2.976562 4.238281-2.171875 6.707031.804688 2.472657 3.105469 4.144531 5.707031 4.144531h28.398438v132.734376c0 3.316406 2.6875 6 6 6h166.113281c3.316407 0 6-2.683594 6-6v-132.730469h28.402344c2.597656.003906 4.90625-1.671875 5.710937-4.144531.804688-2.472657-.074218-5.179688-2.179687-6.710938zm-37.933594-1.144531c-3.3125 0-6 2.6875-6 6v132.730469h-154.109375v-132.730469c0-3.3125-2.6875-6-6-6h-15.96875l99.023438-72.09375 99.023437 72.09375zm0 0">
      </path>
      <path
        d="m157.777344 162.558594c0 19.882812 16.117187 36 36 36 19.882812 0 36-16.117188 36-36 0-19.882813-16.117188-36-36-36-19.875.023437-35.976563 16.128906-36 36zm60 0c0 13.253906-10.746094 24-24 24s-24-10.746094-24-24 10.746094-24 24-24c13.25.015625 23.984375 10.75 24 24zm0 0">
      </path>
</svg>
